<svg xmlns="http://www.w3.org/2000/svg">
	<symbol id="s1" viewBox="0 0 19 19">
		<!-- <rect ry="2" rx="2" y="-18" x="1" height="17" width="17" transform="scale(1,-1)" fill="red" stroke="red" stroke-width="2"/> -->
		<path d="M5 5.25l4.5 4.5 4.5-4.5 2 2-6.5 6.5L3 7.25z" fill="#00aeef"/>
	</symbol>
	<symbol id="s2" viewBox="0 0 19 19">
		<!-- <rect ry="2" rx="2" y="-18" x="1" height="17" width="17" transform="scale(1,-1)" fill="red" stroke="red" stroke-width="2"/> -->
		<path d="M5 5.75l4.5 4.5 4.5-4.5 1.5 1.5-6 6-6-6z" fill="#757575"/>
	</symbol>
	<symbol id="s3" viewBox="0 0 19 19">
		<!-- <rect width="17" height="17" x="1" y="1" rx="2" ry="2" fill="red" stroke="red" stroke-width="2"/> -->
		<path d="M5 13.75l4.5-4.5 4.5 4.5 2-2-6.5-6.5-6.5 6.5z" fill="#00aeef"/>
	</symbol>
	<symbol id="s4" viewBox="0 0 19 19">
		<!-- <rect width="17" height="17" x="1" y="1" rx="2" ry="2" fill="red" stroke="red" stroke-width="2"/> -->
		<path d="M5 13.25l4.5-4.5 4.5 4.5 1.5-1.5-6-6-6 6z" fill="#757575"/>
	</symbol>
	<symbol id="s5" viewBox="0 0 19 19">
		<rect ry="2" rx="2" y="1" x="1" height="17" width="17" fill="none" stroke="#757575" stroke-width="2"/>
	</symbol>
	<symbol id="s6" viewBox="0 0 19 19">
		<rect width="17" height="17" x="1" y="1" rx="2" ry="2" fill="#00aeef" stroke="#00aeef" stroke-width="2"/>
		<rect ry="1" rx="1" y="8" x="4" height="3" width="11" fill="#fff"/>
	</symbol>
	<symbol id="s7" viewBox="0 0 19 19">
		<rect ry="2" rx="2" y="1" x="1" height="17" width="17" fill="#00aeef" stroke="#00aeef" stroke-width="2"/>
		<rect ry=".5" rx=".5" y="8.5" x="4.5" height="2" width="10" fill="#fff"/>
	</symbol>
	<symbol id="s8" viewBox="0 0 19 19">
		<rect ry="2" rx="2" y="1" x="1" height="17" width="17" fill="#00aeef" stroke="#00aeef" stroke-width="2"/>
		<path d="M15 4l2 2-9 9-6-6 2-2 4 4z" fill="#fff"/>
	</symbol>
	<symbol id="s9" viewBox="0 0 19 19">
		<rect width="17" height="17" x="1" y="1" rx="2" ry="2" fill="#00aeef" stroke="#00aeef" stroke-width="2"/>
		<path d="M15 4.5L16.5 6 8 14.5 2.5 9 4 7.5l4 4z" fill="#fff"/>
	</symbol>
</svg>
